<svg xmlns="http://www.w3.org/2000/svg" viewBox="0 0 360 360">
  <rect width="360" height="360" fill="transparent"/>
  <path d="M180 70c38 0 68 30 68 68 0 18-7 35-18 47 20 14 33 37 33 63v62c0 16-13 29-29 29H126c-16 0-29-13-29-29v-62c0-26 13-49 33-63-11-12-18-29-18-47 0-38 30-68 68-68z"
        fill="#efc29f"/>
  <path d="M180 76c34 0 62 28 62 62 0 34-28 62-62 62s-62-28-62-62c0-34 28-62 62-62z"
        fill="#f4ccad"/>
  <path d="M141 230c-20 10-34 31-34 55v25c0 11 9 20 20 20h106c11 0 20-9 20-20v-25c0-24-14-45-34-55"
        fill="#efc29f"/>
  <path d="M180 76c34 0 62 28 62 62 0 34-28 62-62 62s-62-28-62-62c0-34 28-62 62-62z"
        fill="none" stroke="#9f6f4e" stroke-opacity="0.28" stroke-width="3"/>
  <path d="M141 230c-20 10-34 31-34 55v25c0 11 9 20 20 20h106c11 0 20-9 20-20v-25c0-24-14-45-34-55"
        fill="none" stroke="#9f6f4e" stroke-opacity="0.24" stroke-width="3"/>
  <path d="M124 311h112" stroke="#0c2130" stroke-opacity="0.08" stroke-width="10" stroke-linecap="round"/>
</svg>

